<?xml version="1.0" encoding="UTF-8"?>
<svg width="32" height="32" viewBox="0 0 32 32" fill="none" xmlns="http://www.w3.org/2000/svg">
  <!-- Background Circle -->
  <circle cx="16" cy="16" r="15" fill="#4A154B" stroke="#F59E0B" stroke-width="2"/>
  
  <!-- Om Symbol -->
  <path d="M16 8C12.5 8 9.5 9.5 7.5 12C5.5 14.5 4 18 4 22C4 26 5.5 29.5 7.5 32C9.5 34.5 12.5 36 16 36C19.5 36 22.5 34.5 24.5 32C26.5 29.5 28 26 28 22C28 18 26.5 14.5 24.5 12C22.5 9.5 19.5 8 16 8ZM16 10C18.5 10 20.5 11 22 12.5C23.5 14 24.5 16 24.5 18.5C24.5 21 23.5 23 22 24.5C20.5 26 18.5 27 16 27C13.5 27 11.5 26 10 24.5C8.5 23 7.5 21 7.5 18.5C7.5 16 8.5 14 10 12.5C11.5 11 13.5 10 16 10Z" 
        fill="#F59E0B"/>
  
  <!-- Stars -->
  <path d="M8 6L9 8L11 7L9 9L10 11L8 10L6 11L7 9L5 7L7 8L8 6Z" fill="#F59E0B"/>
  <path d="M24 6L25 8L27 7L25 9L26 11L24 10L22 11L23 9L21 7L23 8L24 6Z" fill="#F59E0B"/>
  <path d="M16 4L17 6L19 5L17 7L18 9L16 8L14 9L15 7L13 5L15 6L16 4Z" fill="#F59E0B"/>
</svg> 